ISO-10303-21;
HEADER;
/* Generated by software containing ST-Developer
 * from STEP Tools, Inc. (www.steptools.com) 
 */
/* OPTION: using custom renumber hook */

FILE_DESCRIPTION(
/* description */ ('STEP AP242 Edition 2',
'CAx-IF Rec.Pracs.---Representation and Presentation of Product Manufa
cturing Information (PMI)---4.0---2014-10-13',
'CAx-IF Rec.Pracs.---3D Tessellated Geometry---0.4---2014-09-14','2;1',
'CAx-IF Rec.Pracs.---User Defined Attributes---1.5---2016-08-15'),
/* implementation_level */ '2;1');

FILE_NAME(
/* name */ '693e9d99e500b51f67ec1c65',
/* time_stamp */ '2025-12-14T11:20:57Z',
/* author */ (''),
/* organization */ (''),
/* preprocessor_version */ 'ST-DEVELOPER v20',
/* originating_system */ 'ONSHAPE BY PTC INC, 1.208',
/* authorisation */ '  ');

FILE_SCHEMA (('AP242_MANAGED_MODEL_BASED_3D_ENGINEERING_MIM_LF { 1 0 10303 442 3 1 4 }'));
ENDSEC;

DATA;
#10=SHAPE_REPRESENTATION_RELATIONSHIP('','',#184,#11);
#11=ADVANCED_BREP_SHAPE_REPRESENTATION('',(#182),#351);
#12=B_SPLINE_SURFACE_WITH_KNOTS('',3,1,((#299,#300),(#301,#302),(#303,#304),
(#305,#306),(#307,#308),(#309,#310),(#311,#312),(#313,#314),(#315,#316),
(#317,#318),(#319,#320)),.SURF_OF_LINEAR_EXTRUSION.,.F.,.F.,.F.,(4,1,1,
1,1,1,1,1,4),(2,2),(0.,0.125,0.25,0.375,0.5,0.625,0.75,0.875,1.),(0.,1.),
 .UNSPECIFIED.);
#13=B_SPLINE_CURVE_WITH_KNOTS('',3,(#264,#265,#266,#267,#268,#269,#270,
#271),.UNSPECIFIED.,.F.,.F.,(4,1,1,1,1,4),(0.,0.159396750065059,0.377587791830798,
0.608993880712503,0.824541289323844,1.),.UNSPECIFIED.);
#14=B_SPLINE_CURVE_WITH_KNOTS('',3,(#278,#279,#280,#281,#282,#283,#284,
#285,#286,#287,#288,#289,#290),.UNSPECIFIED.,.T.,.F.,(1,1,1,1,1,1,1,1,1,
1,1,1,1,1,1,1,1),(-0.00273911246025934,-0.0018260749735062,-0.000913037486753054,
8.85739427649916E-17,0.000913037486753231,0.0013695562301298,0.00182607497350637,
0.00228259371688294,0.00273911246025951,0.00365214994701266,0.0045651874337658,
0.00547822492051894,0.00639126240727208,0.00730429989402522,0.00821733738077837,
0.00867385612415494,0.00913037486753151),.UNSPECIFIED.);
#15=B_SPLINE_CURVE_WITH_KNOTS('',3,(#321,#322,#323,#324,#325,#326,#327,
#328,#329,#330,#331),.UNSPECIFIED.,.T.,.F.,(1,1,1,1,1,1,1,1,1,1,1,1,1,1,
1),(-0.0026219284989097,-0.00174795233260646,-0.000873976166303232,0.,0.000873976166303232,
0.00174795233260646,0.0026219284989097,0.00349590466521293,0.00436988083151616,
0.00524385699781939,0.00611783316412262,0.00699180933042585,0.00786578549672909,
0.00873976166303232,0.00961373782933555),.UNSPECIFIED.);
#16=B_SPLINE_CURVE_WITH_KNOTS('',3,(#333,#334,#335,#336,#337,#338,#339,
#340),.UNSPECIFIED.,.F.,.F.,(4,1,1,1,1,4),(0.,0.159396750065059,0.377587791830798,
0.608993880712503,0.824541289323844,1.),.UNSPECIFIED.);
#17=PLANE('',#190);
#18=PLANE('',#193);
#19=PLANE('',#196);
#20=PLANE('',#197);
#21=PLANE('',#198);
#22=PLANE('',#201);
#23=LINE('',#251,#31);
#24=LINE('',#256,#32);
#25=LINE('',#262,#33);
#26=LINE('',#273,#34);
#27=LINE('',#296,#35);
#28=LINE('',#298,#36);
#29=LINE('',#342,#37);
#30=LINE('',#344,#38);
#31=VECTOR('',#209,1.);
#32=VECTOR('',#212,1.);
#33=VECTOR('',#219,1.);
#34=VECTOR('',#220,1.);
#35=VECTOR('',#233,1.);
#36=VECTOR('',#234,1.);
#37=VECTOR('',#235,1.);
#38=VECTOR('',#238,1.);
#39=ORIENTED_EDGE('',*,*,#77,.T.);
#40=ORIENTED_EDGE('',*,*,#78,.F.);
#41=ORIENTED_EDGE('',*,*,#79,.F.);
#42=ORIENTED_EDGE('',*,*,#80,.T.);
#43=ORIENTED_EDGE('',*,*,#81,.F.);
#44=ORIENTED_EDGE('',*,*,#82,.F.);
#45=ORIENTED_EDGE('',*,*,#79,.T.);
#46=ORIENTED_EDGE('',*,*,#83,.T.);
#47=ORIENTED_EDGE('',*,*,#84,.T.);
#48=ORIENTED_EDGE('',*,*,#85,.F.);
#49=ORIENTED_EDGE('',*,*,#86,.F.);
#50=ORIENTED_EDGE('',*,*,#77,.F.);
#51=ORIENTED_EDGE('',*,*,#87,.T.);
#52=ORIENTED_EDGE('',*,*,#88,.F.);
#53=ORIENTED_EDGE('',*,*,#82,.T.);
#54=ORIENTED_EDGE('',*,*,#88,.T.);
#55=ORIENTED_EDGE('',*,*,#89,.T.);
#56=ORIENTED_EDGE('',*,*,#90,.F.);
#57=ORIENTED_EDGE('',*,*,#83,.F.);
#58=ORIENTED_EDGE('',*,*,#78,.T.);
#59=ORIENTED_EDGE('',*,*,#91,.T.);
#60=ORIENTED_EDGE('',*,*,#92,.T.);
#61=ORIENTED_EDGE('',*,*,#93,.F.);
#62=ORIENTED_EDGE('',*,*,#84,.F.);
#63=ORIENTED_EDGE('',*,*,#90,.T.);
#64=ORIENTED_EDGE('',*,*,#94,.F.);
#65=ORIENTED_EDGE('',*,*,#80,.F.);
#66=ORIENTED_EDGE('',*,*,#85,.T.);
#67=ORIENTED_EDGE('',*,*,#93,.T.);
#68=ORIENTED_EDGE('',*,*,#86,.T.);
#69=ORIENTED_EDGE('',*,*,#95,.F.);
#70=ORIENTED_EDGE('',*,*,#95,.T.);
#71=ORIENTED_EDGE('',*,*,#89,.F.);
#72=ORIENTED_EDGE('',*,*,#81,.T.);
#73=ORIENTED_EDGE('',*,*,#94,.T.);
#74=ORIENTED_EDGE('',*,*,#92,.F.);
#75=ORIENTED_EDGE('',*,*,#91,.F.);
#76=ORIENTED_EDGE('',*,*,#87,.F.);
#77=EDGE_CURVE('',#96,#96,#111,.T.);
#78=EDGE_CURVE('',#97,#98,#23,.T.);
#79=EDGE_CURVE('',#99,#97,#112,.T.);
#80=EDGE_CURVE('',#99,#100,#24,.T.);
#81=EDGE_CURVE('',#98,#100,#113,.T.);
#82=EDGE_CURVE('',#101,#101,#114,.T.);
#83=EDGE_CURVE('',#97,#102,#25,.T.);
#84=EDGE_CURVE('',#102,#103,#13,.T.);
#85=EDGE_CURVE('',#99,#103,#26,.T.);
#86=EDGE_CURVE('',#104,#104,#115,.T.);
#87=EDGE_CURVE('',#105,#105,#14,.T.);
#88=EDGE_CURVE('',#106,#106,#116,.T.);
#89=EDGE_CURVE('',#98,#107,#27,.T.);
#90=EDGE_CURVE('',#102,#107,#28,.T.);
#91=EDGE_CURVE('',#108,#108,#15,.T.);
#92=EDGE_CURVE('',#107,#109,#16,.T.);
#93=EDGE_CURVE('',#103,#109,#29,.T.);
#94=EDGE_CURVE('',#100,#109,#30,.T.);
#95=EDGE_CURVE('',#110,#110,#117,.T.);
#96=VERTEX_POINT('',#250);
#97=VERTEX_POINT('',#252);
#98=VERTEX_POINT('',#253);
#99=VERTEX_POINT('',#255);
#100=VERTEX_POINT('',#257);
#101=VERTEX_POINT('',#261);
#102=VERTEX_POINT('',#263);
#103=VERTEX_POINT('',#272);
#104=VERTEX_POINT('',#275);
#105=VERTEX_POINT('',#291);
#106=VERTEX_POINT('',#293);
#107=VERTEX_POINT('',#297);
#108=VERTEX_POINT('',#332);
#109=VERTEX_POINT('',#341);
#110=VERTEX_POINT('',#347);
#111=CIRCLE('',#187,0.006);
#112=CIRCLE('',#188,0.006);
#113=CIRCLE('',#189,0.006);
#114=CIRCLE('',#191,0.00507058053894156);
#115=CIRCLE('',#192,0.00128805844213261);
#116=CIRCLE('',#195,0.00507058053894156);
#117=CIRCLE('',#200,0.00128805844213261);
#118=EDGE_LOOP('',(#39));
#119=EDGE_LOOP('',(#40,#41,#42,#43));
#120=EDGE_LOOP('',(#44));
#121=EDGE_LOOP('',(#45,#46,#47,#48));
#122=EDGE_LOOP('',(#49));
#123=EDGE_LOOP('',(#50));
#124=EDGE_LOOP('',(#51));
#125=EDGE_LOOP('',(#52));
#126=EDGE_LOOP('',(#53));
#127=EDGE_LOOP('',(#54));
#128=EDGE_LOOP('',(#55,#56,#57,#58));
#129=EDGE_LOOP('',(#59));
#130=EDGE_LOOP('',(#60,#61,#62,#63));
#131=EDGE_LOOP('',(#64,#65,#66,#67));
#132=EDGE_LOOP('',(#68));
#133=EDGE_LOOP('',(#69));
#134=EDGE_LOOP('',(#70));
#135=EDGE_LOOP('',(#71,#72,#73,#74));
#136=EDGE_LOOP('',(#75));
#137=EDGE_LOOP('',(#76));
#138=FACE_BOUND('',#118,.T.);
#139=FACE_BOUND('',#119,.T.);
#140=FACE_BOUND('',#120,.T.);
#141=FACE_BOUND('',#121,.T.);
#142=FACE_BOUND('',#122,.T.);
#143=FACE_BOUND('',#123,.T.);
#144=FACE_BOUND('',#124,.T.);
#145=FACE_BOUND('',#125,.T.);
#146=FACE_BOUND('',#126,.T.);
#147=FACE_BOUND('',#127,.T.);
#148=FACE_BOUND('',#128,.T.);
#149=FACE_BOUND('',#129,.T.);
#150=FACE_BOUND('',#130,.T.);
#151=FACE_BOUND('',#131,.T.);
#152=FACE_BOUND('',#132,.T.);
#153=FACE_BOUND('',#133,.T.);
#154=FACE_BOUND('',#134,.T.);
#155=FACE_BOUND('',#135,.T.);
#156=FACE_BOUND('',#136,.T.);
#157=FACE_BOUND('',#137,.T.);
#158=CYLINDRICAL_SURFACE('',#186,0.006);
#159=CYLINDRICAL_SURFACE('',#194,0.00507058053894156);
#160=CYLINDRICAL_SURFACE('',#199,0.00128805844213261);
#161=CYLINDRICAL_SURFACE('',#202,0.0011);
#162=ADVANCED_FACE('',(#138,#139),#158,.T.);
#163=ADVANCED_FACE('',(#140,#141,#142),#17,.T.);
#164=ADVANCED_FACE('',(#143),#18,.F.);
#165=ADVANCED_FACE('',(#144,#145,#146),#159,.F.);
#166=ADVANCED_FACE('',(#147),#19,.T.);
#167=ADVANCED_FACE('',(#148),#20,.F.);
#168=ADVANCED_FACE('',(#149,#150),#12,.F.);
#169=ADVANCED_FACE('',(#151),#21,.T.);
#170=ADVANCED_FACE('',(#152,#153),#160,.F.);
#171=ADVANCED_FACE('',(#154,#155),#22,.F.);
#172=ADVANCED_FACE('',(#156,#157),#161,.F.);
#173=CLOSED_SHELL('',(#162,#163,#164,#165,#166,#167,#168,#169,#170,#171,
#172));
#174=STYLED_ITEM('',(#175),#182);
#175=PRESENTATION_STYLE_ASSIGNMENT((#176));
#176=SURFACE_STYLE_USAGE(.BOTH.,#177);
#177=SURFACE_SIDE_STYLE('',(#178));
#178=SURFACE_STYLE_FILL_AREA(#179);
#179=FILL_AREA_STYLE('',(#180));
#180=FILL_AREA_STYLE_COLOUR('',#181);
#181=COLOUR_RGB('',0.647058823529412,0.647058823529412,0.647058823529412);
#182=MANIFOLD_SOLID_BREP('Part 2',#173);
#183=SHAPE_DEFINITION_REPRESENTATION(#356,#184);
#184=SHAPE_REPRESENTATION('Part 2',(#185),#351);
#185=AXIS2_PLACEMENT_3D('',#247,#203,#204);
#186=AXIS2_PLACEMENT_3D('',#248,#205,#206);
#187=AXIS2_PLACEMENT_3D('',#249,#207,#208);
#188=AXIS2_PLACEMENT_3D('',#254,#210,#211);
#189=AXIS2_PLACEMENT_3D('',#258,#213,#214);
#190=AXIS2_PLACEMENT_3D('',#259,#215,#216);
#191=AXIS2_PLACEMENT_3D('',#260,#217,#218);
#192=AXIS2_PLACEMENT_3D('',#274,#221,#222);
#193=AXIS2_PLACEMENT_3D('',#276,#223,#224);
#194=AXIS2_PLACEMENT_3D('',#277,#225,#226);
#195=AXIS2_PLACEMENT_3D('',#292,#227,#228);
#196=AXIS2_PLACEMENT_3D('',#294,#229,#230);
#197=AXIS2_PLACEMENT_3D('',#295,#231,#232);
#198=AXIS2_PLACEMENT_3D('',#343,#236,#237);
#199=AXIS2_PLACEMENT_3D('',#345,#239,#240);
#200=AXIS2_PLACEMENT_3D('',#346,#241,#242);
#201=AXIS2_PLACEMENT_3D('',#348,#243,#244);
#202=AXIS2_PLACEMENT_3D('',#349,#245,#246);
#203=DIRECTION('',(0.,0.,1.));
#204=DIRECTION('',(1.,0.,0.));
#205=DIRECTION('',(0.,0.,-1.));
#206=DIRECTION('',(-1.,0.,0.));
#207=DIRECTION('',(0.,0.,1.));
#208=DIRECTION('',(1.,0.,0.));
#209=DIRECTION('',(0.,0.,-1.));
#210=DIRECTION('',(0.,0.,1.));
#211=DIRECTION('',(1.,0.,0.));
#212=DIRECTION('',(0.,0.,-1.));
#213=DIRECTION('',(0.,0.,1.));
#214=DIRECTION('',(1.,0.,0.));
#215=DIRECTION('',(0.,0.,1.));
#216=DIRECTION('',(1.,0.,0.));
#217=DIRECTION('',(0.,0.,1.));
#218=DIRECTION('',(1.,0.,0.));
#219=DIRECTION('',(0.0553608757121558,-0.998466410772232,0.));
#220=DIRECTION('',(0.0549578525714633,-0.998488675168994,0.));
#221=DIRECTION('',(0.,0.,1.));
#222=DIRECTION('',(1.,0.,0.));
#223=DIRECTION('',(0.,0.,1.));
#224=DIRECTION('',(1.,0.,0.));
#225=DIRECTION('',(0.,0.,1.));
#226=DIRECTION('',(1.,0.,0.));
#227=DIRECTION('',(0.,0.,1.));
#228=DIRECTION('',(1.,0.,0.));
#229=DIRECTION('',(0.,0.,1.));
#230=DIRECTION('',(1.,0.,0.));
#231=DIRECTION('',(0.998466410772232,0.0553608757121558,0.));
#232=DIRECTION('',(-0.0553608757121558,0.998466410772232,0.));
#233=DIRECTION('',(0.0553608757121558,-0.998466410772232,0.));
#234=DIRECTION('',(0.,0.,-1.));
#235=DIRECTION('',(0.,0.,-1.));
#236=DIRECTION('',(0.998488675168994,0.0549578525714633,0.));
#237=DIRECTION('',(-0.0549578525714633,0.998488675168994,0.));
#238=DIRECTION('',(0.0549578525714633,-0.998488675168994,0.));
#239=DIRECTION('',(0.,0.,-1.));
#240=DIRECTION('',(-1.,0.,0.));
#241=DIRECTION('',(0.,0.,1.));
#242=DIRECTION('',(1.,0.,0.));
#243=DIRECTION('',(0.,0.,1.));
#244=DIRECTION('',(1.,0.,0.));
#245=DIRECTION('',(0.,-1.,0.));
#246=DIRECTION('',(0.,0.,-1.));
#247=CARTESIAN_POINT('',(0.,0.,0.));
#248=CARTESIAN_POINT('',(0.0369909964501858,0.0643898546695709,0.0058));
#249=CARTESIAN_POINT('',(0.0369909964501858,0.0643898546695709,0.));
#250=CARTESIAN_POINT('',(0.0429909964501858,0.0643898546695709,0.));
#251=CARTESIAN_POINT('',(0.0330713996169569,0.0598470845163558,0.0058));
#252=CARTESIAN_POINT('',(0.0330713996169569,0.0598470845163558,0.0058));
#253=CARTESIAN_POINT('',(0.0330713996169569,0.0598470845163558,0.0025));
#254=CARTESIAN_POINT('',(0.0369909964501858,0.0643898546695709,0.0058));
#255=CARTESIAN_POINT('',(0.0412220793294907,0.0601356875750091,0.0058));
#256=CARTESIAN_POINT('',(0.0412220793294907,0.0601356875750091,0.0058));
#257=CARTESIAN_POINT('',(0.0412220793294907,0.0601356875750091,0.0025));
#258=CARTESIAN_POINT('',(0.0369909964501858,0.0643898546695709,0.0025));
#259=CARTESIAN_POINT('',(0.0369909964501858,0.0611626488460676,0.0058));
#260=CARTESIAN_POINT('',(0.0369909964501858,0.0643898546695709,0.0058));
#261=CARTESIAN_POINT('',(0.0420615769891274,0.0643898546695709,0.0058));
#262=CARTESIAN_POINT('',(0.0332369905963108,0.0568605524450168,0.0058));
#263=CARTESIAN_POINT('',(0.0334025815756647,0.0538740203736777,0.0058));
#264=CARTESIAN_POINT('',(0.0334025815756647,0.0538740203736777,0.0058));
#265=CARTESIAN_POINT('',(0.0335562509757141,0.0534967739030222,0.0058));
#266=CARTESIAN_POINT('',(0.0339847139714944,0.0527147164586735,0.0058));
#267=CARTESIAN_POINT('',(0.0362536530583036,0.0519354430225643,0.0058));
#268=CARTESIAN_POINT('',(0.0387027432793317,0.0519851088563929,0.0058));
#269=CARTESIAN_POINT('',(0.0408478874078504,0.0526002162832899,0.0058));
#270=CARTESIAN_POINT('',(0.0415957523588296,0.0536185340617583,0.0058));
#271=CARTESIAN_POINT('',(0.0415554333224943,0.054079224826512,0.0058));
#272=CARTESIAN_POINT('',(0.0415554333224943,0.054079224826512,0.0058));
#273=CARTESIAN_POINT('',(0.0413887563259926,0.0571074562007606,0.0058));
#274=CARTESIAN_POINT('',(0.035516981035471,0.0549330376088619,0.0058));
#275=CARTESIAN_POINT('',(0.0368050394776036,0.0549330376088619,0.0058));
#276=CARTESIAN_POINT('',(0.0369909964501858,0.0611626488460676,0.));
#277=CARTESIAN_POINT('',(0.0369909964501858,0.0643898546695709,0.0005));
#278=CARTESIAN_POINT('',(0.0384070738631571,0.0595036829391476,0.00330254100660582));
#279=CARTESIAN_POINT('',(0.0392934903398685,0.0598349590751622,0.00297416406060835));
#280=CARTESIAN_POINT('',(0.0399332457051422,0.060247022654119,0.00323082402095775));
#281=CARTESIAN_POINT('',(0.0402802657868522,0.0605280384520223,0.0036686217403818));
#282=CARTESIAN_POINT('',(0.0404060004661422,0.0606419995270807,0.00411821108057471));
#283=CARTESIAN_POINT('',(0.0403285497975255,0.0605708064886959,0.00458749047544026));
#284=CARTESIAN_POINT('',(0.0400174908888616,0.0603096963651709,0.0050681502295925));
#285=CARTESIAN_POINT('',(0.039400301660339,0.0598911285287779,0.00537593242830549));
#286=CARTESIAN_POINT('',(0.0385094967736126,0.059530941187503,0.00514283555791782));
#287=CARTESIAN_POINT('',(0.0380339174372068,0.0594306485669586,0.004249827301322));
#288=CARTESIAN_POINT('',(0.0384070738631571,0.0595036829391476,0.00330254100660582));
#289=CARTESIAN_POINT('',(0.0392934903398685,0.0598349590751622,0.00297416406060835));
#290=CARTESIAN_POINT('',(0.0399332457051422,0.060247022654119,0.00323082402095775));
#291=CARTESIAN_POINT('',(0.0392737053334712,0.0598621591016178,0.00308022554367761));
#292=CARTESIAN_POINT('',(0.0369909964501858,0.0643898546695709,0.0005));
#293=CARTESIAN_POINT('',(0.0420615769891274,0.0643898546695709,0.0005));
#294=CARTESIAN_POINT('',(0.0369909964501858,0.0643898546695709,0.0005));
#295=CARTESIAN_POINT('',(0.0332369905963108,0.0568605524450168,0.0058));
#296=CARTESIAN_POINT('',(0.0332369905963108,0.0568605524450168,0.0025));
#297=CARTESIAN_POINT('',(0.0334025815756647,0.0538740203736777,0.0025));
#298=CARTESIAN_POINT('',(0.0334025815756647,0.0538740203736777,0.0058));
#299=CARTESIAN_POINT('',(0.0334025815756647,0.0538740203736777,0.0058));
#300=CARTESIAN_POINT('',(0.0334025815756647,0.0538740203736777,0.0025));
#301=CARTESIAN_POINT('',(0.0335230901493861,0.0535781811623218,0.0058));
#302=CARTESIAN_POINT('',(0.0335230901493861,0.0535781811623218,0.0025));
#303=CARTESIAN_POINT('',(0.033786255598727,0.0530448684491113,0.0058));
#304=CARTESIAN_POINT('',(0.033786255598727,0.0530448684491113,0.0025));
#305=CARTESIAN_POINT('',(0.034775019320233,0.0524339637648114,0.0058));
#306=CARTESIAN_POINT('',(0.034775019320233,0.0524339637648114,0.0025));
#307=CARTESIAN_POINT('',(0.0361736878237198,0.0520534596548113,0.0058));
#308=CARTESIAN_POINT('',(0.0361736878237198,0.0520534596548113,0.0025));
#309=CARTESIAN_POINT('',(0.0375564202692596,0.0519560864418771,0.0058));
#310=CARTESIAN_POINT('',(0.0375564202692596,0.0519560864418771,0.0025));
#311=CARTESIAN_POINT('',(0.0389153580121993,0.0520918036831347,0.0058));
#312=CARTESIAN_POINT('',(0.0389153580121993,0.0520918036831347,0.0025));
#313=CARTESIAN_POINT('',(0.0402025232883953,0.0524186498307722,0.0058));
#314=CARTESIAN_POINT('',(0.0402025232883953,0.0524186498307722,0.0025));
#315=CARTESIAN_POINT('',(0.041254335250957,0.0530927291481017,0.0058));
#316=CARTESIAN_POINT('',(0.041254335250957,0.0530927291481017,0.0025));
#317=CARTESIAN_POINT('',(0.0415841573426498,0.0537510202855559,0.0058));
#318=CARTESIAN_POINT('',(0.0415841573426498,0.0537510202855559,0.0025));
#319=CARTESIAN_POINT('',(0.0415554333224943,0.054079224826512,0.0058));
#320=CARTESIAN_POINT('',(0.0415554333224943,0.054079224826512,0.0025));
#321=CARTESIAN_POINT('',(0.0401175117891294,0.052436415804543,0.0033055077505001));
#322=CARTESIAN_POINT('',(0.0392791564318054,0.0521756501776171,0.00296485562097552));
#323=CARTESIAN_POINT('',(0.0384080944844765,0.0520447671935245,0.00331642302766467));
#324=CARTESIAN_POINT('',(0.0380501069072136,0.0520182315346324,0.00419762699578259));
#325=CARTESIAN_POINT('',(0.0384344035836198,0.0520473546729634,0.00507011084844712));
#326=CARTESIAN_POINT('',(0.039315038052426,0.0521833831851526,0.00539423137410221));
#327=CARTESIAN_POINT('',(0.0401401908202377,0.0524468655257828,0.00503150860185093));
#328=CARTESIAN_POINT('',(0.0404959909569448,0.0526393653920905,0.00416448399488554));
#329=CARTESIAN_POINT('',(0.0401175117891294,0.052436415804543,0.0033055077505001));
#330=CARTESIAN_POINT('',(0.0392791564318054,0.0521756501776171,0.00296485562097552));
#331=CARTESIAN_POINT('',(0.0384080944844765,0.0520447671935245,0.00331642302766467));
#332=CARTESIAN_POINT('',(0.0392737053334712,0.052197297284756,0.00308022554367781));
#333=CARTESIAN_POINT('',(0.0334025815756647,0.0538740203736777,0.0025));
#334=CARTESIAN_POINT('',(0.0335562509757141,0.0534967739030222,0.0025));
#335=CARTESIAN_POINT('',(0.0339847139714944,0.0527147164586735,0.0025));
#336=CARTESIAN_POINT('',(0.0362536530583036,0.0519354430225643,0.0025));
#337=CARTESIAN_POINT('',(0.0387027432793317,0.0519851088563929,0.0025));
#338=CARTESIAN_POINT('',(0.0408478874078504,0.0526002162832899,0.0025));
#339=CARTESIAN_POINT('',(0.0415957523588296,0.0536185340617583,0.0025));
#340=CARTESIAN_POINT('',(0.0415554333224943,0.054079224826512,0.0025));
#341=CARTESIAN_POINT('',(0.0415554333224943,0.054079224826512,0.0025));
#342=CARTESIAN_POINT('',(0.0415554333224943,0.054079224826512,0.0058));
#343=CARTESIAN_POINT('',(0.0413887563259926,0.0571074562007606,0.0058));
#344=CARTESIAN_POINT('',(0.0413887563259926,0.0571074562007606,0.0025));
#345=CARTESIAN_POINT('',(0.035516981035471,0.0549330376088619,0.0058));
#346=CARTESIAN_POINT('',(0.035516981035471,0.0549330376088619,0.0025));
#347=CARTESIAN_POINT('',(0.0368050394776036,0.0549330376088619,0.0025));
#348=CARTESIAN_POINT('',(0.0369909964501858,0.0611626488460676,0.0025));
#349=CARTESIAN_POINT('',(0.0392737053334713,0.0624,0.0041802255436778));
#350=MECHANICAL_DESIGN_GEOMETRIC_PRESENTATION_REPRESENTATION('',(#174),
#351);
#351=(
GEOMETRIC_REPRESENTATION_CONTEXT(3)
GLOBAL_UNCERTAINTY_ASSIGNED_CONTEXT((#352))
GLOBAL_UNIT_ASSIGNED_CONTEXT((#355,#354,#353))
REPRESENTATION_CONTEXT('Part 2','TOP_LEVEL_ASSEMBLY_PART')
);
#352=UNCERTAINTY_MEASURE_WITH_UNIT(LENGTH_MEASURE(2.E-5),#355,
'DISTANCE_ACCURACY_VALUE','Maximum Tolerance applied to model');
#353=(
NAMED_UNIT(*)
SI_UNIT($,.STERADIAN.)
SOLID_ANGLE_UNIT()
);
#354=(
NAMED_UNIT(*)
PLANE_ANGLE_UNIT()
SI_UNIT($,.RADIAN.)
);
#355=(
LENGTH_UNIT()
NAMED_UNIT(*)
SI_UNIT($,.METRE.)
);
#356=PRODUCT_DEFINITION_SHAPE('','',#357);
#357=PRODUCT_DEFINITION('','',#359,#358);
#358=PRODUCT_DEFINITION_CONTEXT('',#365,'design');
#359=PRODUCT_DEFINITION_FORMATION_WITH_SPECIFIED_SOURCE('','',#361,
 .NOT_KNOWN.);
#360=PRODUCT_RELATED_PRODUCT_CATEGORY('','',(#361));
#361=PRODUCT('Part 2','Part 2','Part 2',(#363));
#362=PRODUCT_CATEGORY('','');
#363=PRODUCT_CONTEXT('',#365,'mechanical');
#364=APPLICATION_PROTOCOL_DEFINITION('international standard',
'ap242_managed_model_based_3d_engineering',2020,#365);
#365=APPLICATION_CONTEXT('managed model based 3d engineering');
ENDSEC;
END-ISO-10303-21;
